<svg width="228" height="209" viewBox="0 0 228 209" fill="none" xmlns="http://www.w3.org/2000/svg">
<path d="M174.264 91.7243C171.018 94.7128 168.533 98.3197 166.985 102.287C165.436 106.255 164.864 110.487 165.306 114.681L165.152 114.54C165.608 119.477 164.88 124.444 163.021 129.097C161.161 133.75 158.215 137.975 154.388 141.478C150.56 144.981 145.944 147.678 140.859 149.379C135.776 151.08 130.347 151.746 124.954 151.33L125.108 151.471C118.656 150.921 112.176 152.206 106.55 155.15C100.925 158.095 96.4293 162.555 93.676 167.924C90.9228 173.293 90.045 179.308 91.1634 185.15C92.2827 190.991 95.3425 196.375 99.9267 200.566C104.511 204.758 110.396 207.554 116.779 208.572C123.164 209.591 129.735 208.782 135.598 206.257C141.462 203.732 146.331 199.614 149.544 194.463C152.756 189.312 154.154 183.381 153.548 177.476L153.711 177.617C153.255 172.681 153.982 167.713 155.842 163.059C157.701 158.407 160.648 154.182 164.475 150.678C168.303 147.176 172.92 144.479 178.003 142.778C183.087 141.076 188.515 140.41 193.909 140.827L193.747 140.686C199.017 141.119 204.322 140.329 209.17 138.386C214.017 136.444 218.251 133.413 221.478 129.575C224.705 125.737 226.822 121.215 227.63 116.429C228.44 111.643 227.915 106.747 226.107 102.195C224.298 97.6441 221.263 93.5842 217.283 90.3919C213.304 87.1996 208.508 84.9785 203.341 83.9345C198.173 82.8905 192.801 83.0567 187.723 84.4181C182.645 85.7802 178.024 88.293 174.29 91.7243H174.264Z" fill="white"/>
<path d="M111.089 132.989L110.926 132.848C115.51 133.27 120.14 132.756 124.481 131.34C128.821 129.925 132.764 127.645 136.023 124.664C139.282 121.683 141.777 118.076 143.326 114.105C144.877 110.134 145.443 105.898 144.984 101.701L145.147 101.842C144.692 96.9054 145.419 91.9379 147.278 87.2847C149.137 82.6323 152.084 78.407 155.911 74.9036C159.739 71.401 164.356 68.704 169.439 67.0033C174.524 65.3014 179.951 64.6358 185.346 65.0525L185.183 64.9114C191.636 65.4663 198.118 64.1853 203.746 61.2442C209.375 58.303 213.874 53.8444 216.632 48.4767C219.389 43.109 220.271 37.0934 219.156 31.2503C218.041 25.4073 214.983 20.0214 210.4 15.8272C205.817 11.633 199.932 8.83469 193.548 7.81407C187.164 6.79338 180.591 7.59995 174.726 10.1238C168.86 12.6476 163.989 16.7659 160.775 21.9169C157.561 27.0678 156.162 33.0006 156.768 38.9061L156.614 38.7572C157.071 43.6941 156.344 48.6627 154.486 53.316C152.628 57.9694 149.681 62.1954 145.854 65.6991C142.026 69.2017 137.408 71.8987 132.324 73.5994C127.239 75.3002 121.81 75.9648 116.416 75.5471L116.57 75.696C111.986 75.2736 107.355 75.7885 103.015 77.204C98.6748 78.6187 94.732 80.8994 91.4726 83.8801C88.2132 86.8607 85.7186 90.4676 84.1685 94.4389C82.6194 98.4103 82.0533 102.646 82.5114 106.843L82.3573 106.702C82.8112 111.638 82.0824 116.605 80.2232 121.258C78.3631 125.909 75.4172 130.135 71.59 133.637C67.7625 137.14 63.1463 139.836 58.0631 141.538C52.98 143.24 47.5524 143.907 42.1588 143.492L42.3129 143.633C35.8603 143.078 29.3777 144.358 23.7495 147.3C18.1214 150.241 13.6215 154.699 10.8639 160.067C8.10617 165.435 7.22478 171.451 8.34005 177.294C9.45531 183.137 12.5129 188.523 17.0957 192.717C21.6785 196.911 27.5634 199.709 33.9478 200.73C40.3322 201.75 46.9052 200.944 52.7703 198.42C58.6353 195.896 63.507 191.778 66.7206 186.628C69.9346 181.476 71.334 175.544 70.7276 169.638L70.8904 169.779C70.4348 164.842 71.1627 159.875 73.0219 155.221C74.8802 150.569 77.827 146.344 81.6542 142.84C85.4822 139.338 90.099 136.641 95.1825 134.94C100.267 133.238 105.695 132.572 111.089 132.989Z" fill="white"/>
<path d="M53.6942 117.259C56.9401 114.271 59.4251 110.664 60.9721 106.696C62.5191 102.728 63.0897 98.4953 62.6434 94.3022L62.806 94.4433C62.3504 89.5056 63.078 84.5357 64.9381 79.8817C66.7983 75.2277 69.7462 71.0017 73.576 67.4983C77.4057 63.995 82.0241 61.2989 87.1102 59.5986C92.1962 57.8981 97.6266 57.2343 103.022 57.6534L102.859 57.5123C109.309 58.0654 115.79 56.7841 121.415 53.8431C127.041 50.9022 131.538 46.4447 134.294 41.0786C137.05 35.7125 137.93 29.6991 136.815 23.8582C135.7 18.0174 132.643 12.6336 128.062 8.4409C123.482 4.24824 117.598 1.45083 111.216 0.430212C104.835 -0.590484 98.2637 0.215382 92.4009 2.73769C86.5373 5.26 81.667 9.37609 78.4539 14.5246C75.2399 19.6732 73.8397 25.6036 74.4443 31.5071L74.2902 31.366C74.7458 36.3025 74.0179 41.2706 72.1586 45.9233C70.2994 50.576 67.3537 54.8014 63.526 58.3045C59.6984 61.8076 55.0815 64.504 49.9976 66.2051C44.9138 67.9066 39.4856 68.5728 34.0917 68.1558L34.2458 68.2969C28.9754 67.8643 23.6709 68.6567 18.8239 70.5996C13.977 72.5426 9.74432 75.5742 6.51825 79.413C3.29218 83.2511 1.17709 87.7734 0.368834 92.5591C-0.439333 97.3456 0.0855431 102.241 1.89482 106.791C3.70409 111.343 6.73937 115.402 10.7192 118.593C14.6991 121.786 19.4948 124.006 24.662 125.05C29.8292 126.093 35.2007 125.926 40.2788 124.565C45.3567 123.203 49.9769 120.69 53.7113 117.259H53.6942Z" fill="white"/>
</svg>
